<svg xmlns="http://www.w3.org/2000/svg" xmlns:xlink="http://www.w3.org/1999/xlink" version="1.1" id="Capa_1" x="0px" y="0px" width="510px" height="510px" viewBox="0 0 510 510" style="enable-background:new 0 0 510 510;" xml:space="preserve" ><rect id="svgEditorBackground" x="0" y="0" width="510" height="510" style="fill: none; stroke: none;"/>
<g fill="#16B67F">
	<g id="radio-button-on">
		<path d="M255,127.5c-71.4,0,-127.5,56.099999999999994,-127.5,127.5c0,71.39999999999998,56.099999999999994,127.5,127.5,127.5c71.39999999999998,0,127.5,-56.10000000000002,127.5,-127.5c0,-71.4,-56.10000000000002,-127.5,-127.5,-127.5ZM255,0c-140.25,0,-255,114.75,-255,255s114.75,255,255,255s255,-114.75,255,-255s-114.75,-255,-255,-255ZM255,459c-112.19999999999999,0,-204,-91.80000000000001,-204,-204s91.80000000000001,-204,204,-204s204,91.80000000000001,204,204s-91.80000000000001,204,-204,204Z" style="" fill="white"/>
	</g>
</g>
<g>
</g>
<g>
</g>
<g>
</g>
<g>
</g>
<g>
</g>
<g>
</g>
<g>
</g>
<g>
</g>
<g>
</g>
<g>
</g>
<g>
</g>
<g>
</g>
<g>
</g>
<g>
</g>
<g>
</g>
</svg>